<svg xmlns="http://www.w3.org/2000/svg" width="17.462" height="21.4" viewBox="0 0 17.462 21.4"><defs><style>.a{fill:#ff5400;stroke:#ff5400;stroke-width:0.4px;}</style></defs><path class="a" d="M58.008,15.586a1.23,1.23,0,1,1,1.23,1.23A1.23,1.23,0,0,1,58.008,15.586Zm4.785-9.255a5.086,5.086,0,0,1-1.3-2.8.856.856,0,0,0-.861-.82.936.936,0,0,0-.561.186A16.315,16.315,0,0,0,57.935,5.28,7.356,7.356,0,0,1,56.859.82a.894.894,0,0,0-.9-.82,1.111,1.111,0,0,0-.517.127,19.12,19.12,0,0,0-4.189,3.9A16.067,16.067,0,0,0,49,7.738a12,12,0,0,0-1,4.719A8.547,8.547,0,0,0,56.531,21a8.342,8.342,0,0,0,5.676-2.138.82.82,0,0,0-1.1-1.22,6.726,6.726,0,0,1-4.578,1.717,6.9,6.9,0,0,1-6.891-6.9,11.829,11.829,0,0,1,2.892-7.406,18.9,18.9,0,0,1,2.743-2.768A7.316,7.316,0,0,0,57.443,7.2a.82.82,0,0,0,1.25-.144,17.406,17.406,0,0,1,1.476-1.923,10.577,10.577,0,0,0,1.285,2.148,8.627,8.627,0,0,1,1.968,5.052s0,.008,0,.014a7.738,7.738,0,0,1-.3,2.032.82.82,0,1,0,1.578.448,9.7,9.7,0,0,0,.359-2.4A9.815,9.815,0,0,0,62.792,6.331Zm-9.49,10.3a.82.82,0,0,0,1.155-.111l5.414-6.563a.82.82,0,0,0-1.266-1.044l-5.414,6.563a.82.82,0,0,0,.111,1.155Zm1.753-6.785a1.23,1.23,0,1,0-1.23,1.23A1.23,1.23,0,0,0,55.055,9.844Z" transform="translate(-47.8 0.2)"/></svg>