<svg xmlns="http://www.w3.org/2000/svg" viewBox="0 0 21.709 21.708">
    <defs>
        <style>
            .cls-1{fill:#fe5f55}
        </style>
    </defs>
    <g id="phone-contact" transform="rotate(30 3.973 14.827)">
        <path id="Path_216" d="M7.946 0a7.946 7.946 0 1 0 0 15.892.49.49 0 0 0 0-.981 6.965 6.965 0 1 1 6.965-6.965 4.515 4.515 0 0 1-2.077 3.87 3 3 0 0 1-1.44.37 2.3 2.3 0 0 0 .774-.744 1.045 1.045 0 0 0 .116-.175 7.9 7.9 0 0 0 .27-1.225c.118-.518-2.266-1.529-2.473-.882a6.189 6.189 0 0 1-.34 1.2c-.134.178-.464.093-.67-.082-.543-.463-1.15-1.144-1.682-1.682l-.045-.045L7.3 8.5c-.538-.53-1.219-1.135-1.682-1.679-.175-.206-.26-.536-.082-.67a6.189 6.189 0 0 1 1.2-.34c.645-.206-.365-2.592-.883-2.473a7.857 7.857 0 0 0-1.224.269 1.15 1.15 0 0 0-.175.117c-1.362.863-1.537 2.959-.208 4.52.506.6 1.035 1.175 1.579 1.74l.046.044.043.046a14.955 14.955 0 0 0 2.32 2.07c2.288 1.528 4.044 1.1 5.078.534a5.484 5.484 0 0 0 2.584-4.728A7.955 7.955 0 0 0 7.946 0z" class="cls-1" data-name="Path 216"/>
    </g>
</svg>
