<svg xmlns="http://www.w3.org/2000/svg" width="169px" viewBox="0 0 161.036 44.601" class="svg replaced-svg">
  <g transform="translate(-91.855 -514.229)">
    <g transform="translate(91.855 514.229)">
      <path style="fill:#ff5000;" d="M695.361,609.568h-8.635a1.493,1.493,0,1,0,0,2.986h7.952a.7.7,0,0,1,.7.7v1.709h-7.494a3.147,3.147,0,0,0-3.147,3.147v3.084a3.147,3.147,0,0,0,3.147,3.147h7.477a3.147,3.147,0,0,0,3.147-3.147v-8.479a3.147,3.147,0,0,0-3.147-3.146m.017,11.086a.7.7,0,0,1-.7.7h-6.112a.7.7,0,0,1-.7-.7v-2.006a.7.7,0,0,1,.7-.7h6.812Z" transform="translate(-592.189 -594.686)"></path>
      <path style="fill:#ff5000;" d="M458.647,614.964h-1.84c0-.054.008-.106.008-.16v-2.088a3.147,3.147,0,0,0-3.147-3.147h-7.477a3.147,3.147,0,0,0-3.147,3.147V614.8a3.147,3.147,0,0,0,3.147,3.147h1.841l-.008,3.245a3.146,3.146,0,0,0,3.147,3.147h7.476a3.147,3.147,0,0,0,3.147-3.147V618.11a3.147,3.147,0,0,0-3.147-3.147m-12.473-.7v-1.005a.7.7,0,0,1,.7-.7h6.1a.7.7,0,0,1,.7.7v1.7h-6.811a.7.7,0,0,1-.7-.7m12.489,6.392a.7.7,0,0,1-.7.7h-6.112a.7.7,0,0,1-.7-.7V617.95h6.807a.7.7,0,0,1,.7.7v2Z" transform="translate(-388.224 -594.687)"></path>
      <path style="fill:#ff5000;" d="M915.232,614.964h-11.89v-1.709a.7.7,0,0,1,.7-.7h12.033a1.493,1.493,0,1,0,0-2.986H903.359a3.147,3.147,0,0,0-3.147,3.147v10.124a1.565,1.565,0,1,0,3.13,0v-4.89h4.438v4.89a1.565,1.565,0,1,0,3.13,0v-4.89h3.64a.7.7,0,0,1,.7.7v4.191a1.565,1.565,0,0,0,3.131,0v-4.73a3.146,3.146,0,0,0-3.147-3.147" transform="translate(-774.029 -594.688)"></path>
      <path style="fill:#ff5000;" d="M585.223,609.568h-9.647a1.538,1.538,0,0,0-1.551,1.346,1.494,1.494,0,0,0,1.486,1.64h2.845v2.265a1.565,1.565,0,0,0,3.13,0v-2.265h3.049a.7.7,0,0,1,.7.7v7.392a.7.7,0,0,1-.7.7h-6.108a.7.7,0,0,1-.7-.7v-1.315a1.565,1.565,0,1,0-3.131,0v1.854a3.147,3.147,0,0,0,3.147,3.147h7.477a3.147,3.147,0,0,0,3.147-3.147v-8.479a3.146,3.146,0,0,0-3.146-3.147" transform="translate(-498.753 -594.686)"></path>
      <path style="fill:#ff5000;" d="M801.915,624.341a3.147,3.147,0,0,0,3.147-3.147v-8.479a3.147,3.147,0,0,0-3.147-3.147h-7.477a3.148,3.148,0,0,0-3.147,3.147v1.02a1.565,1.565,0,1,0,3.13,0v-.478a.7.7,0,0,1,.7-.7h6.1a.7.7,0,0,1,.7.7v7.4a.7.7,0,0,1-.7.7h-6.108a.7.7,0,0,1-.7-.7v-1.31a1.565,1.565,0,0,0-3.13,0v1.854a3.147,3.147,0,0,0,3.147,3.147Z" transform="translate(-682.11 -594.687)"></path>
      <path style="fill:#ff5000;" d="M1050.649,622.84V612.715a3.147,3.147,0,0,0-3.147-3.146h-7.18a3.146,3.146,0,0,0-3.147,3.146V622.84a1.565,1.565,0,1,0,3.13,0v-9.58a.7.7,0,0,1,.7-.7h5.805a.7.7,0,0,1,.7.7v9.58a1.565,1.565,0,0,0,3.131,0" transform="translate(-889.613 -594.687)"></path>
      <path style="fill:#ff5000;" d="M160.488,583.192c-.053-.06-.107-.121-.163-.182a22.413,22.413,0,0,0-20.96-6.612.049.049,0,0,1-.044-.084l20.036-18.75h0c.381-.356.771-.752,1.192-1.212a1.635,1.635,0,0,0,.058-2.193,1.585,1.585,0,0,0-2.343,0c-.386.422-.737.781-1.073,1.1a19.239,19.239,0,0,1-27.194-.9c-.033-.035-.064-.071-.1-.108l-.053-.061a1.63,1.63,0,0,0-2.213-.247,1.584,1.584,0,0,0-.195,2.307l.074.084c.055.063.11.126.168.189A22.263,22.263,0,0,0,143.3,563.6q.382.013.762.012a22.456,22.456,0,0,0,4.564-.471.049.049,0,0,1,.044.084l-20.021,18.735c-.381.356-.772.754-1.194,1.213a1.634,1.634,0,0,0-.058,2.192,1.583,1.583,0,0,0,2.343,0c.387-.423.738-.781,1.074-1.1a19.262,19.262,0,0,1,27.194.9c.032.034.062.069.092.1l.118.134a1.584,1.584,0,0,0,2.345-2.131Z" transform="translate(-121.518 -547.461)"></path>
      <path style="fill:#ff5000;" d="M100.309,628.269a.053.053,0,0,0-.009-.085l-1.751-1.041a30.93,30.93,0,0,1-4.036-2.87,1.618,1.618,0,0,0-2.021-.09,1.586,1.586,0,0,0-.063,2.477c.867.729,1.768,1.414,2.692,2.048a.047.047,0,0,1,.005.073l-2.733,2.558a1.629,1.629,0,0,0-.182,2.22,1.585,1.585,0,0,0,2.3.139Z" transform="translate(-91.855 -606.756)"></path>
      <path style="fill:#ff5000;" d="M119.831,592a25,25,0,0,1-12.189-6.749,1.585,1.585,0,0,0-2.34.105,1.64,1.64,0,0,0,.161,2.2,28.186,28.186,0,0,0,10.811,6.729.047.047,0,0,1,.017.079l-10.281,9.621q-.3.278-.581.562a1.636,1.636,0,0,0-.006,2.345,1.585,1.585,0,0,0,2.187-.045c.185-.184.372-.367.565-.547L122.9,592.512a.05.05,0,0,0-.032-.087,20.182,20.182,0,0,1-3.039-.426" transform="translate(-102.89 -573.771)"></path>
      <path style="fill:#ff5000;" d="M330.894,629.961l2.733-2.557a1.63,1.63,0,0,0,.181-2.221,1.584,1.584,0,0,0-2.3-.139l-5.8,5.429a.054.054,0,0,0,.009.085l1.751,1.041a30.941,30.941,0,0,1,4.036,2.87,1.619,1.619,0,0,0,2.021.09,1.586,1.586,0,0,0,.063-2.477c-.867-.729-1.767-1.414-2.691-2.048a.046.046,0,0,1-.006-.073" transform="translate(-289.191 -607.385)"></path>
      <path style="fill:#ff5000;" d="M258.3,598.171a.047.047,0,0,1-.016-.079l10.28-9.62c.2-.184.391-.372.581-.56a1.637,1.637,0,0,0,.007-2.346,1.585,1.585,0,0,0-2.187.045c-.185.185-.373.367-.565.547l-14.727,13.781a.05.05,0,0,0,.032.087,20.233,20.233,0,0,1,3.039.426,25.012,25.012,0,0,1,12.188,6.749,1.585,1.585,0,0,0,2.34-.105,1.639,1.639,0,0,0-.16-2.2,28.2,28.2,0,0,0-10.811-6.729" transform="translate(-226.708 -574.079)"></path>
      <path style="fill:#ff5000;" d="M157.383,738.69c-.215.2-.427.412-.646.641a1.584,1.584,0,1,0,2.288,2.191c.18-.188.351-.358.524-.519a13.4,13.4,0,0,1,18.815.547,1.584,1.584,0,1,0,2.3-2.184,16.58,16.58,0,0,0-23.276-.676" transform="translate(-146.238 -699.903)"></path>
      <path style="fill:#ff5000;" d="M207.872,773.206a10.675,10.675,0,0,0-10.71-.016,1.584,1.584,0,0,0,1.589,2.741,7.5,7.5,0,0,1,7.525.012,1.584,1.584,0,1,0,1.6-2.737" transform="translate(-180.057 -731.558)"></path>
      <path style="fill:#ff5000;" d="M169.071,537.8a16.472,16.472,0,0,0,11.29-4.442c.215-.2.426-.411.646-.64a1.584,1.584,0,1,0-2.287-2.192c-.18.188-.351.358-.524.519a13.4,13.4,0,0,1-18.815-.547,1.584,1.584,0,0,0-2.295,2.184,16.493,16.493,0,0,0,11.985,5.119" transform="translate(-146.535 -527.539)"></path>
      <path style="fill:#ff5000;" d="M197.517,517.182a10.677,10.677,0,0,0,10.711.017,1.584,1.584,0,0,0-1.589-2.741,7.5,7.5,0,0,1-7.525-.012,1.584,1.584,0,1,0-1.6,2.736" transform="translate(-180.36 -514.229)"></path>
    </g>
  </g>
</svg>