<svg xmlns="http://www.w3.org/2000/svg" viewBox="0 0 14.527 11.288">
    <defs>
        <style>
            .cls-1{fill:#fff}
        </style>
    </defs>
    <g id="noun_Compare_71604" transform="translate(-9 -21.354)">
        <g id="Group_132" data-name="Group 132" transform="translate(9 21.354)">
            <path id="Path_163" d="M50.944 47.133h-3.73v-1.5c0-.448-.239-.568-.571-.268l-3.071 2.794a.724.724 0 0 0 .008 1.093l3.059 2.794c.332.3.575.18.575-.268v-1.596h3.73a.728.728 0 0 0 .754-.768v-1.425a.8.8 0 0 0-.754-.856z" class="cls-1" data-name="Path 163" transform="translate(-37.17 -40.92)"/>
            <path id="Path_164" d="M17.128 24.314l-3.064-2.794c-.332-.3-.58-.18-.58.268v1.655H9.761a.685.685 0 0 0-.761.706v1.425a.869.869 0 0 0 .761.918h3.723v1.442c0 .448.243.568.575.268l3.072-2.794a.724.724 0 0 0-.003-1.094z" class="cls-1" data-name="Path 164" transform="translate(-9 -21.354)"/>
        </g>
    </g>
</svg>
