<svg xmlns="http://www.w3.org/2000/svg" width="21.763" height="21.841" viewBox="0 0 21.763 21.841">
    <path d="M405.121,515.729a2.713,2.713,0,0,0-2.1-1H389.428v-1.365A1.365,1.365,0,0,0,388.063,512h-2.718a1.365,1.365,0,0,0,0,2.73h1.365v9.555a2.73,2.73,0,0,0,2.718,2.73H401.66a2.721,2.721,0,0,0,2.665-2.195L405.69,518a2.73,2.73,0,0,0-.569-2.266Zm-15.693,8.556V517.46h13.591l-1.365,6.825H389.421Zm-1.365,4.1a2.717,2.717,0,1,0,.005,0Zm13.592,0a2.715,2.715,0,1,0,.005,0Z" transform="translate(-383.98 -512)"></path>
</svg>