<?xml version="1.0" standalone="no"?>
<!DOCTYPE svg PUBLIC "-//W3C//DTD SVG 20010904//EN"
 "http://www.w3.org/TR/2001/REC-SVG-20010904/DTD/svg10.dtd">
<svg version="1.0" xmlns="http://www.w3.org/2000/svg"
 width="512.000000pt" height="512.000000pt" viewBox="0 0 512.000000 512.000000"
 preserveAspectRatio="xMidYMid meet">

<g transform="translate(0.000000,512.000000) scale(0.100000,-0.100000)"
fill="#fff" stroke="none">
<path d="M361 4464 c-236 -63 -390 -297 -353 -536 40 -258 286 -440 542 -401
260 41 442 286 403 543 -43 279 -324 466 -592 394z"/>
<path d="M1845 4151 c-87 -22 -167 -87 -212 -174 -23 -45 -27 -64 -27 -137 0
-73 4 -92 27 -137 36 -69 88 -120 156 -152 l56 -26 1515 0 1515 0 56 26 c117
55 184 160 184 289 0 129 -67 234 -184 289 l-56 26 -1500 2 c-825 0 -1513 -2
-1530 -6z"/>
<path d="M361 2864 c-236 -63 -390 -297 -353 -536 40 -258 286 -440 542 -401
260 41 442 286 403 543 -43 279 -324 466 -592 394z"/>
<path d="M1845 2551 c-87 -22 -167 -87 -212 -174 -23 -45 -27 -64 -27 -137 0
-73 4 -92 27 -137 36 -69 88 -120 156 -152 l56 -26 1515 0 1515 0 56 26 c117
55 184 160 184 289 0 129 -67 234 -184 289 l-56 26 -1500 2 c-825 0 -1513 -2
-1530 -6z"/>
<path d="M361 1264 c-236 -63 -390 -297 -353 -536 40 -258 286 -440 542 -401
260 41 442 286 403 543 -43 279 -324 466 -592 394z"/>
<path d="M1845 951 c-87 -22 -167 -87 -212 -174 -23 -45 -27 -64 -27 -137 0
-73 4 -92 27 -137 36 -69 88 -120 156 -152 l56 -26 1515 0 1515 0 56 26 c117
55 184 160 184 289 0 129 -67 234 -184 289 l-56 26 -1500 2 c-825 0 -1513 -2
-1530 -6z"/>
</g>
</svg>
