<svg xmlns="http://www.w3.org/2000/svg" width="15.83" height="15.827" viewBox="0 0 15.83 15.827"><defs><style>.a{fill:#6c7d90;fill-rule:evenodd;}</style></defs><path class="a" d="M7.623,3.258,4.658.29a.99.99,0,0,0-1.4,0L.29,3.258a.99.99,0,0,0,1.4,1.4L2.969,3.379V14.84a.99.99,0,0,0,1.979,0V3.38L6.227,4.659a.989.989,0,1,0,1.4-1.4Zm7.914,7.914a.99.99,0,0,0-1.4,0l-1.279,1.279V.99a.989.989,0,0,0-1.978,0V12.451L9.6,11.172a.99.99,0,0,0-1.4,1.4l2.967,2.968a.99.99,0,0,0,1.4,0l2.968-2.968a.988.988,0,0,0,0-1.4Z" transform="translate(15.83 0) rotate(90)"/></svg>