<svg xmlns="http://www.w3.org/2000/svg" width="18" height="18.084" viewBox="0 0 18 18.084"><defs><style>.a{fill:#17223b;fill-rule:evenodd;}</style></defs><path class="a" d="M369.473,517.292a2.244,2.244,0,0,0-1.689-.767h-2.25a4.5,4.5,0,1,0-9,0h-2.249a2.246,2.246,0,0,0-1.688.765,2.278,2.278,0,0,0-.546,1.78l1.125,9.056a2.255,2.255,0,0,0,2.232,1.983h11.25A2.255,2.255,0,0,0,368.9,528.1l.178-1.61.942-7.409a2.276,2.276,0,0,0-.542-1.784Zm-8.439-3.032a2.257,2.257,0,0,1,2.25,2.264h-4.5a2.257,2.257,0,0,1,2.246-2.264Zm5.625,13.584h-11.25l-1.124-9.056h13.5l-.948,7.447Zm-3.375-6.792a1.132,1.132,0,0,0-1.125,1.132,1.125,1.125,0,1,1-2.249,0,1.127,1.127,0,0,0-2.254,0,3.375,3.375,0,1,0,6.751,0,1.132,1.132,0,0,0-1.122-1.132Z" transform="translate(-352.034 -512.025)"/></svg>