<svg xmlns="http://www.w3.org/2000/svg" viewBox="0 0 20 22.865">
<path d="M339.532,366.247a14.356,14.356,0,0,0-3.61-1.936,7.117,7.117,0,0,0-4.08-12.256,6.549,6.549,0,0,0-1.683,0,7.118,7.118,0,0,0-4.081,12.256,14.347,14.347,0,0,0-3.608,1.937,3.6,3.6,0,0,0,0,5.8,14.341,14.341,0,0,0,17.063,0,3.6,3.6,0,0,0,0-5.8Zm-12.829-7.1a4.273,4.273,0,0,1,3.859-4.259,3.469,3.469,0,0,1,.889,0,4.287,4.287,0,1,1-4.747,4.259Zm11.123,10.61a11.468,11.468,0,0,1-13.651,0,.747.747,0,0,1,0-1.213,11.474,11.474,0,0,1,13.651,0,.749.749,0,0,1,0,1.213Z" transform="translate(-321 -352)">
</path>
</svg>