<svg xmlns="http://www.w3.org/2000/svg" width="18.281" height="17.472" viewBox="0 0 18.281 17.472"><defs><style>.a{fill:#ff5400;stroke:#ff5400;}</style></defs><g transform="translate(-0.665 -12.527)"><g transform="translate(-0.001 11.905)"><path class="a" d="M17.222,18.119a.725.725,0,0,0-.585-.494l-5.086-.743L9.275,12.276a.755.755,0,0,0-1.3,0L5.7,16.883.62,17.625a.726.726,0,0,0-.4,1.238l3.673,3.586-.864,5.065a.725.725,0,0,0,1.054.763l4.544-2.39,4.552,2.391a.725.725,0,0,0,1.052-.766l-.87-5.064,3.68-3.586A.722.722,0,0,0,17.222,18.119Zm-5.151,3.557a.727.727,0,0,0-.208.643l.686,3.992L8.961,24.425a.729.729,0,0,0-.337-.083.719.719,0,0,0-.338.083L4.7,26.31l.681-3.993a.725.725,0,0,0-.208-.641l-2.9-2.827,4-.586a.723.723,0,0,0,.546-.4l1.795-3.631,1.795,3.631a.726.726,0,0,0,.546.4l4.009.586Z" transform="translate(1.177 -10.784)"/></g></g></svg>