<svg xmlns="http://www.w3.org/2000/svg" width="80" height="80" viewBox="0 0 80 80">
    <g id="_80x80_TaxFree" data-name="80x80 TaxFree" transform="translate(0 0.169)">
        <g id="Group_2496" data-name="Group 2496" transform="translate(2.704 5.203)">
            <path id="Path_3309" data-name="Path 3309" d="M42.583,10.371H69.518a7.185,7.185,0,0,1,7.14,7.2V71.945a7.172,7.172,0,0,1-7.14,7.2H15.648a7.158,7.158,0,0,1-7.148-7.2V17.572a7.172,7.172,0,0,1,7.14-7.2Z" transform="translate(-7.809 -9.914)" fill="#fff" fill-rule="evenodd"></path>
            <path id="Path_3310" data-name="Path 3310" d="M94.015,73.7l-9.247-10.9V83.012a3.639,3.639,0,0,1-3.681,3.609H26.731a3.641,3.641,0,0,1-3.681-3.609v-53.2A3.641,3.641,0,0,1,26.731,26.2H81.086a3.641,3.641,0,0,1,3.681,3.609V45.6h4.625V29.814a8.221,8.221,0,0,0-8.3-8.138H26.731a8.221,8.221,0,0,0-8.3,8.138v53.2a8.221,8.221,0,0,0,8.3,8.138H81.086a8.221,8.221,0,0,0,8.3-8.138v-9.33h4.625Z" transform="translate(-18.427 -21.675)" fill="#28539c" fill-rule="evenodd"></path>
            <path id="Path_3311" data-name="Path 3311" d="M90.323,51.936V36.153a2.754,2.754,0,0,0-2.759-2.714H33.206a2.754,2.754,0,0,0-2.759,2.714v53.2a2.754,2.754,0,0,0,2.759,2.714H87.564a2.754,2.754,0,0,0,2.759-2.714v-20.2L81.076,80.032H85.7V86.1a1.45,1.45,0,0,1-1.463,1.439h-47.7A1.45,1.45,0,0,1,35.069,86.1V39.407a1.45,1.45,0,0,1,1.463-1.439H84.248a1.45,1.45,0,0,1,1.463,1.439V51.936h4.625Z" transform="translate(-24.902 -28.011)" fill="#e1e0e0" fill-rule="evenodd"></path>
            <path id="Path_3312" data-name="Path 3312" d="M59.654,89.77a1.248,1.248,0,0,0,.92.565A.394.394,0,0,0,61,89.98a.389.389,0,0,0-.117-.283.925.925,0,0,0-.235-.189,3.82,3.82,0,0,1-.709-.661,1.426,1.426,0,0,1-.283-.92,1.615,1.615,0,0,1,1.6-1.7,2.093,2.093,0,0,1,1.016.267v1.581a1.146,1.146,0,0,0-.826-.565.347.347,0,0,0-.379.307.533.533,0,0,0,.141.307c.072.069.189.141.267.213a2.7,2.7,0,0,1,.706.637,1.445,1.445,0,0,1,.267.9,1.687,1.687,0,0,1-1.7,1.746,3.543,3.543,0,0,1-1.085-.213Zm5.307,1.746V89.383h-.685v2.133H62.837v-5.19h1.439v1.839h.685V86.326H66.4v5.2Zm13.965,0h1.439v-5.19H78.927Zm2-5.19H82.3l1.133,3.114h.024c-.048-.613-.165-1.2-.165-1.794V86.312h1.391v5.209H83.291l-1.066-3H82.2c.048.5.093.968.093,1.463v1.533h-1.36Zm8.141,2.17v.237c0,1.274-.267,2.879-1.911,2.879-1.581,0-2.077-1.333-2.077-2.666s.5-2.714,2.053-2.714a1.938,1.938,0,0,1,1.815,1.274l-1.392.5c-.024-.189-.165-.52-.4-.52-.661,0-.613,1.178-.613,1.581s0,1.274.533,1.274c.379,0,.5-.424.5-.73h-.533V88.5h2.007ZM71.26,91.521v-5.2h1.333c1.25,0,2.218.4,2.218,1.746s-.85,1.77-2.1,1.746v1.7Zm1.557-4.081H72.7v1.2a.533.533,0,0,0,.637-.586c0-.339-.165-.621-.52-.621Zm3.823,0h-.093v1.2a.6.6,0,1,0,.093-1.2Zm-1.533,4.081v-5.2h1.3c1.25,0,2.218.4,2.218,1.746s-.85,1.77-2.077,1.746v1.7Zm-6.275-1.226c.533,0,.565-1.037.565-1.367s-.024-1.367-.565-1.367-.565,1.037-.565,1.367.021,1.362.562,1.362Zm0-4.057c1.463,0,2.029,1.415,2.029,2.69s-.565,2.69-2.029,2.69S66.8,90.2,66.8,88.927s.565-2.695,2.026-2.695Zm-12.5-1.6V70.2h7.053v3.4H60.313v2.077h2.868v3.42H60.313v5.545ZM75.933,70.2h7.432v3.4H79.943v2h3.066v3.42H79.943v2.194h3.42v3.42H75.933Zm8.989,0H92.33v3.4H88.907v2H91.97v3.42H88.907v2.194h3.42v3.42H84.919ZM71.1,84.633,68.88,78.617c-.024.73.024,1.439.024,2.146v3.871h-4V70.2h3.847c3.465,0,5.968.992,5.968,4.8a3.644,3.644,0,0,1-2.287,3.633l2.972,6.016ZM69.16,76.86a1.682,1.682,0,0,0,1.629-1.839A1.6,1.6,0,0,0,68.9,73.275v3.561Zm-7.666-8.069V57.862H59.3v-3.5h8.469v3.516H65.481V68.8Zm23.591,0-.8-2.242q-.248-.8-.472-1.629h-.048c-.165.52-.307,1.085-.472,1.629l-.874,2.242h-4.34l3.561-7.5-3.375-6.931H82.7l.661,1.722c.189.533.283,1.109.448,1.674h.024c.141-.565.237-1.109.424-1.674l.514-1.722h4.484L85.882,61.29l3.633,7.5Z" transform="translate(-38.843 -39.282)" fill-rule="evenodd"></path>
            <path id="Path_3313" data-name="Path 3313" d="M86.078,63.866l-.424-3.351c-.117-.9-.189-1.815-.283-2.714-.165.9-.267,1.815-.424,2.714l-.533,3.351Zm.778,4.932-.307-1.866H83.884L83.553,68.8H79.448L82.985,54.36H87.85L90.988,68.8Z" transform="translate(-51.301 -39.28)" fill-rule="evenodd"></path>
        </g>
        <rect id="Rectangle_997" data-name="Rectangle 997" width="80" height="80" transform="translate(0 -0.169)" fill="none"></rect>
    </g>
</svg>