<svg xmlns="http://www.w3.org/2000/svg" width="11.401" height="13.029" viewBox="0 0 11.401 13.029"><defs><style>
    .a {
        fill: #6c7d90;
        fill-rule: evenodd;
    }
</style></defs><path class="a" d="M330.772,132.072h-.814v-.814a3.257,3.257,0,0,0-6.515,0v.814h-.814A1.629,1.629,0,0,0,321,133.7v5.7a1.629,1.629,0,0,0,1.629,1.629h8.143A1.629,1.629,0,0,0,332.4,139.4v-5.7A1.629,1.629,0,0,0,330.772,132.072Zm-5.7-.814a1.629,1.629,0,0,1,3.257,0v.814h-3.257Zm5.7,8.143h-8.143v-5.7h8.143Zm-4.872-2.513c0,.024-.014.045-.014.07v1.629h1.629v-1.629a.623.623,0,0,0-.015-.07,1.222,1.222,0,0,0-.392-2.373h-.814a1.222,1.222,0,0,0-.393,2.373Z" transform="translate(-321 -128)"></path></svg>