<svg xmlns="http://www.w3.org/2000/svg" viewBox="0 0 18.481 18.469">
    <defs>
        <style>
            .cls-1{fill:none;stroke:#455d7a;stroke-width:1.3px}
        </style>
    </defs>
    <g id="phone-receiver_1_" data-name="phone-receiver (1)" transform="translate(-115.258 -1178.234)">
        <g id="Group_22" data-name="Group 22">
            <path id="Path_25" d="M17.172 13.738a.83.83 0 0 1-.255.728l-2.419 2.4a1.361 1.361 0 0 1-.427.309 1.766 1.766 0 0 1-.518.164q-.018 0-.109.009t-.236.009a8.385 8.385 0 0 1-1.119-.118 8.5 8.5 0 0 1-1.891-.582 15.877 15.877 0 0 1-2.538-1.392 18.916 18.916 0 0 1-3.019-2.546 19.93 19.93 0 0 1-2.11-2.4A17.105 17.105 0 0 1 1.185 8.2a11.412 11.412 0 0 1-.764-1.765 9.36 9.36 0 0 1-.345-1.364 4.5 4.5 0 0 1-.076-.9q.018-.327.018-.364a1.768 1.768 0 0 1 .164-.518 1.363 1.363 0 0 1 .309-.427L2.913.443A.8.8 0 0 1 3.5.188a.679.679 0 0 1 .418.136 1.264 1.264 0 0 1 .309.336l1.942 3.693a.885.885 0 0 1 .091.637 1.134 1.134 0 0 1-.309.582l-.891.891a.3.3 0 0 0-.06.118.449.449 0 0 0-.027.136 3.284 3.284 0 0 0 .327.873 8.014 8.014 0 0 0 .673 1.064A11.814 11.814 0 0 0 7.26 10.1a12.047 12.047 0 0 0 1.455 1.3 8.4 8.4 0 0 0 1.064.682 2.828 2.828 0 0 0 .655.264l.227.045a.434.434 0 0 0 .118-.027.3.3 0 0 0 .121-.064l1.037-1.055a1.114 1.114 0 0 1 .764-.291.95.95 0 0 1 .491.109h.018l3.51 2.073a.915.915 0 0 1 .452.602z" class="cls-1" data-name="Path 25" transform="translate(115.908 1178.696)"/>
        </g>
    </g>
</svg>
